<svg width="641" height="640" viewBox="0 0 641 640" fill="none" xmlns="http://www.w3.org/2000/svg">
<path d="M618.971 248.168C612.052 162.855 608.592 120.199 592.488 92.6007C546.378 13.5793 412.319 -5.21524 327.65 1.99198C214.298 11.6382 84.6249 76.8001 27.5449 202.611C-24.2988 316.883 -0.393424 446.232 77.7237 530.846C220.925 685.957 516.316 658.263 588.475 556.483C617.272 515.863 619.348 450.984 622.399 355.68C623.865 309.804 621.004 273.245 618.971 248.168Z" fill="#F4F7FA"/>
<path d="M564.654 52.7689C557.326 46.7058 546.209 43.4036 536.811 42.7368C470.199 38.0164 460.478 177.253 470.688 208.371C480.898 239.488 474.283 249.705 421.82 265.985C369.358 282.265 394.526 313.611 400.92 331.942C407.314 350.273 419.977 365.758 381.733 383.972C343.488 402.187 356.779 413.473 356.779 413.473C356.779 413.473 427.308 485.616 423.412 462.519C419.516 439.422 426.575 404.546 489.809 401.895C517.046 400.753 558.755 387.761 567.99 358.596C570.141 351.805 571.637 341.432 570.002 334.403C567.732 324.652 561.333 316.97 557.78 307.792C549.499 286.405 570.269 270.744 582.222 256.448C588.463 248.985 594.7 241.333 599.477 232.824C609.4 215.158 605.684 196.212 594.88 179.928C589.699 172.12 582.501 163.835 580.24 154.52C577.812 144.515 579.929 130.845 580.505 120.552C580.957 112.48 581.726 104.439 581.272 96.3457C580.432 81.2963 576.906 62.906 564.654 52.7689Z" fill="url(#paint0_linear_44_334)"/>
<g opacity="0.8">
<g opacity="0.8">
<path opacity="0.8" d="M351.233 453.965C350.776 454.129 350.258 453.935 350.027 453.494C349.776 453.012 349.961 452.416 350.443 452.165C350.74 452.01 380.432 436.392 413.554 410.669C444.075 386.967 483.836 349.594 499.934 306.148C513.38 269.863 525.641 209.876 533.576 141.571C540.692 80.3214 541.816 35.0227 538.792 26.6143C538.607 26.1028 538.874 25.5387 539.386 25.3537C539.898 25.1687 540.462 25.4359 540.647 25.9475C544.184 35.7855 541.939 86.6722 535.536 141.8C527.584 210.255 515.282 270.406 501.783 306.833C485.519 350.725 445.471 388.385 414.737 412.247C381.478 438.07 351.656 453.754 351.359 453.91C351.315 453.93 351.274 453.949 351.233 453.965Z" fill="white"/>
</g>
<g opacity="0.8">
<path opacity="0.8" d="M533.469 153.445C532.959 153.627 532.441 153.486 532.254 152.976C532.007 152.303 507.175 85.4943 475.153 70.4107C474.66 70.1801 474.461 69.6229 474.692 69.1296C474.925 68.6363 475.516 68.4422 476.007 68.6729C508.762 84.1013 533.078 149.508 534.099 152.291C534.286 152.803 533.985 153.26 533.473 153.442C533.471 153.445 533.469 153.445 533.469 153.445Z" fill="white"/>
</g>
<g opacity="0.8">
<path opacity="0.8" d="M521.358 230.921C520.979 231.058 520.536 230.951 520.264 230.62C519.919 230.2 519.978 229.579 520.399 229.234C520.581 229.083 538.864 214.086 561.422 201.501C591.902 184.497 615.262 179.749 630.85 187.392C631.339 187.632 631.54 188.221 631.3 188.71C631.06 189.199 630.471 189.4 629.982 189.16C594.115 171.576 522.369 230.159 521.65 230.752C521.561 230.828 521.461 230.885 521.358 230.921Z" fill="white"/>
</g>
<g opacity="0.8">
<path opacity="0.8" d="M441.761 389.287C441.66 389.324 441.555 389.342 441.443 389.344C440.9 389.353 440.452 388.919 440.443 388.374C440.438 388.088 439.931 359.424 433.932 329.22C428.431 301.528 417.072 266.842 394.199 258.849C393.685 258.669 393.413 258.107 393.594 257.595C393.772 257.082 394.336 256.81 394.847 256.99C413.92 263.654 427.721 287.836 435.869 328.864C441.9 359.239 442.407 388.056 442.411 388.344C442.421 388.778 442.146 389.148 441.761 389.287Z" fill="white"/>
</g>
<g opacity="0.8">
<path opacity="0.8" d="M482.462 342.976C482.063 343.12 481.602 342.992 481.337 342.634C481.012 342.195 481.106 341.579 481.542 341.257C484.714 338.911 559.536 283.905 588.714 289.157C589.251 289.253 589.605 289.767 589.509 290.301C589.413 290.838 588.902 291.194 588.365 291.096C560.013 285.992 483.483 342.271 482.714 342.839C482.636 342.901 482.549 342.944 482.462 342.976Z" fill="white"/>
</g>
</g>
<path d="M623.117 257.849C618.273 249.665 608.928 242.796 600.312 238.989C539.224 212.007 482.964 339.741 482.042 372.478C481.119 405.214 471.436 412.59 416.562 410.158C361.686 407.726 374.762 445.74 374.577 465.153C374.392 484.567 381.067 503.423 338.915 507.622C296.764 511.822 305.451 526.937 305.451 526.937C305.451 526.937 347.408 618.69 351.558 595.637C355.707 572.583 374.15 542.153 434.551 561.058C460.566 569.199 504.211 571.087 522.771 546.769C527.093 541.105 532.01 531.852 532.848 524.683C534.011 514.74 530.59 505.345 530.35 495.507C529.793 472.58 554.639 464.87 570.723 455.464C579.12 450.554 587.578 445.461 594.955 439.071C610.269 425.806 613.185 406.721 608.529 387.742C606.295 378.641 602.324 368.408 603.349 358.878C604.45 348.643 611.068 336.494 615.092 327.003C618.248 319.561 621.694 312.253 624.005 304.484C628.31 290.031 631.217 271.533 623.117 257.849Z" fill="url(#paint1_linear_44_334)"/>
<g opacity="0.8">
<g opacity="0.8">
<path opacity="0.8" d="M286.53 563.16C286.046 563.16 285.623 562.802 285.555 562.309C285.482 561.77 285.859 561.272 286.398 561.199C286.729 561.153 319.954 556.503 359.826 543.505C396.566 531.529 446.628 509.814 476.478 474.379C501.409 444.782 533.245 392.484 563.823 330.894C591.243 275.666 607.628 233.418 607.628 224.482C607.628 223.939 608.069 223.498 608.613 223.498C609.156 223.498 609.597 223.939 609.597 224.482C609.597 234.937 590.266 282.063 565.586 331.771C534.94 393.496 503.01 445.938 477.983 475.648C447.827 511.447 397.397 533.333 360.402 545.389C320.367 558.435 286.996 563.103 286.663 563.149C286.621 563.158 286.576 563.16 286.53 563.16Z" fill="white"/>
</g>
<g opacity="0.8">
<path opacity="0.8" d="M559.707 342.235C559.166 342.235 558.725 341.824 558.723 341.283C558.718 340.566 557.958 269.245 532.929 244.216C532.543 243.832 532.543 243.213 532.929 242.83C533.312 242.446 533.936 242.448 534.322 242.832C559.924 268.434 560.673 338.305 560.693 341.269C560.698 341.813 560.259 342.235 559.714 342.235C559.709 342.235 559.707 342.235 559.707 342.235Z" fill="white"/>
</g>
<g opacity="0.8">
<path opacity="0.8" d="M522.094 410.843C521.69 410.843 521.311 410.591 521.167 410.189C520.984 409.678 521.249 409.114 521.763 408.929C521.985 408.849 544.264 400.922 569.752 396.714C604.187 391.025 627.775 394.464 639.86 406.931C640.239 407.321 640.228 407.945 639.837 408.324C639.447 408.703 638.824 408.691 638.444 408.301C610.643 379.618 523.307 410.468 522.428 410.783C522.316 410.824 522.204 410.843 522.094 410.843Z" fill="white"/>
</g>
<g opacity="0.8">
<path opacity="0.8" d="M393.605 532.932C393.5 532.932 393.392 532.914 393.285 532.88C392.771 532.704 392.495 532.144 392.673 531.628C392.764 531.356 401.988 504.213 406.562 473.76C410.755 445.84 411.803 409.356 392.984 394.095C392.561 393.752 392.497 393.131 392.84 392.709C393.182 392.286 393.803 392.22 394.226 392.565C409.919 405.289 414.724 432.716 408.506 474.078C403.904 504.701 394.63 531.991 394.536 532.265C394.397 532.674 394.014 532.932 393.605 532.932Z" fill="white"/>
</g>
<g opacity="0.8">
<path opacity="0.8" d="M447.574 503.126C447.149 503.126 446.759 502.849 446.631 502.425C446.473 501.904 446.77 501.354 447.291 501.198C451.068 500.066 540.089 473.621 565.769 488.437C566.24 488.709 566.402 489.312 566.13 489.782C565.858 490.253 565.255 490.415 564.785 490.143C539.831 475.747 448.773 502.811 447.857 503.085C447.763 503.112 447.667 503.126 447.574 503.126Z" fill="white"/>
</g>
</g>
<path d="M418.344 27.7403L417.641 32.778C415.305 32.8853 413.007 33.1868 410.772 33.6892L408.867 28.9894C408.349 27.7083 406.88 27.0985 405.59 27.6306L397.513 30.9579C396.22 31.49 395.59 32.9653 396.106 34.2487L398.02 39.0078C396.063 40.2547 394.213 41.666 392.491 43.228L388.435 40.0811C387.339 39.2316 385.75 39.4417 384.884 40.5516L379.458 47.4939C378.588 48.6061 378.773 50.2 379.869 51.0518L383.941 54.217C382.856 56.254 381.945 58.4052 381.21 60.6501L376.042 59.9718C374.653 59.7891 373.361 60.7734 373.155 62.171L371.856 70.9265C371.648 72.3287 372.607 73.6167 373.998 73.7994L379.182 74.4799C379.244 76.8435 379.502 79.1683 379.961 81.4314L375.096 83.4592C373.786 84.005 373.142 85.5145 373.658 86.8276L376.898 95.0625C377.417 96.3825 378.903 97.0059 380.219 96.4555L385.085 94.4185C386.309 96.4099 387.705 98.287 389.253 100.032L386.01 104.243C385.133 105.382 385.32 107.013 386.43 107.885L393.382 113.339C394.494 114.211 396.108 113.992 396.983 112.848L400.187 108.664C402.233 109.753 404.398 110.66 406.657 111.384L405.928 116.604C405.729 118.034 406.705 119.342 408.107 119.525L416.883 120.676C418.287 120.861 419.582 119.849 419.778 118.42L420.486 113.238C422.873 113.135 425.218 112.827 427.5 112.313L429.425 117.1C429.959 118.429 431.455 119.057 432.766 118.502L440.95 115.033C442.259 114.478 442.882 112.955 442.346 111.63L440.421 106.878C442.419 105.588 444.3 104.124 446.045 102.505L450.046 105.615C451.165 106.485 452.768 106.266 453.627 105.127L458.987 98.0199C459.843 96.8849 459.631 95.2658 458.514 94.4003L454.549 91.3265C455.63 89.2323 456.527 87.0195 457.24 84.7153L462.195 85.3661C463.586 85.5488 464.86 84.5554 465.041 83.1487L466.166 74.3703C466.347 72.9704 465.367 71.687 463.979 71.5043L459.037 70.8557C458.934 68.4625 458.633 66.1149 458.126 63.8335L462.709 61.9152C463.997 61.3763 464.607 59.8873 464.072 58.5902L460.725 50.4969C460.19 49.2044 458.715 48.5923 457.427 49.129L452.816 51.0518C451.56 49.081 450.14 47.2221 448.562 45.5026L451.608 41.5267C452.455 40.4191 452.248 38.8366 451.147 37.9893L444.262 32.6981C443.161 31.8531 441.583 32.0609 440.733 33.1639L437.669 37.1444C435.636 36.0893 433.49 35.2124 431.249 34.5182L431.932 29.5192C432.119 28.1445 431.158 26.8816 429.781 26.7012L421.178 25.5731C419.808 25.3972 418.536 26.3632 418.344 27.7403ZM388.015 68.547C390.502 51.246 406.38 39.1174 423.496 41.3623C440.612 43.6071 452.633 59.3963 450.334 76.7202C448.021 94.1513 432.108 106.517 414.805 104.25C397.501 101.98 385.515 85.953 388.015 68.547Z" fill="#D8DEE8"/>
<path d="M286.436 25.0087L285.349 32.7982C281.738 32.9626 278.185 33.4285 274.727 34.205L271.784 26.9383C270.98 24.9561 268.712 24.0153 266.719 24.8374L254.229 29.9825C252.231 30.8069 251.256 33.0837 252.055 35.0727L255.015 42.4307C251.989 44.3581 249.128 46.539 246.467 48.9574L240.187 44.0909C238.495 42.7778 236.035 43.1044 234.697 44.8171L226.307 55.5503C224.962 57.2699 225.247 59.734 226.942 61.0516L233.238 65.9478C231.562 69.097 230.15 72.4243 229.013 75.8931L221.023 74.8449C218.878 74.564 216.88 76.085 216.558 78.2453L214.551 91.7851C214.229 93.9546 215.713 95.9437 217.864 96.2245L225.878 97.275C225.974 100.929 226.371 104.526 227.083 108.024L219.563 111.16C217.535 112.005 216.54 114.336 217.339 116.369L222.349 129.1C223.151 131.139 225.451 132.105 227.483 131.254L235.008 128.104C236.899 131.183 239.057 134.085 241.452 136.782L236.44 143.293C235.083 145.056 235.373 147.577 237.09 148.925L247.84 157.356C249.559 158.705 252.055 158.365 253.409 156.598L258.363 150.13C261.526 151.816 264.876 153.218 268.367 154.337L267.239 162.41C266.931 164.62 268.438 166.643 270.61 166.927L284.179 168.706C286.349 168.991 288.354 167.427 288.655 165.216L289.752 157.205C293.442 157.048 297.068 156.57 300.594 155.776L303.57 163.177C304.397 165.232 306.71 166.203 308.736 165.344L321.392 159.982C323.413 159.126 324.379 156.769 323.547 154.718L320.57 147.369C323.659 145.376 326.569 143.11 329.268 140.607L335.452 145.417C337.181 146.762 339.659 146.422 340.988 144.663L349.275 133.677C350.597 131.923 350.271 129.418 348.544 128.079L342.415 123.329C344.087 120.089 345.473 116.668 346.574 113.108L354.238 114.112C356.389 114.396 358.36 112.859 358.638 110.685L360.378 97.1106C360.657 94.9434 359.141 92.9612 356.996 92.6803L349.355 91.6778C349.198 87.9783 348.732 84.3472 347.946 80.8213L355.035 77.8548C357.028 77.0213 357.971 74.7193 357.14 72.7143L351.963 60.1998C351.136 58.2016 348.855 57.2562 346.866 58.0852L339.739 61.0562C337.798 58.0075 335.598 55.1347 333.162 52.4788L337.871 46.3312C339.181 44.6207 338.862 42.1726 337.156 40.8618L326.509 32.6817C324.808 31.3755 322.367 31.6975 321.054 33.4034L316.313 39.5578C313.168 37.9273 309.85 36.5708 306.388 35.4952L307.445 27.765C307.735 25.6389 306.246 23.6887 304.12 23.4101L290.818 21.6654C288.697 21.3868 286.733 22.8826 286.436 25.0087ZM239.541 88.1039C243.384 61.3531 267.936 42.5997 294.399 46.0708C320.862 49.542 339.449 73.9543 335.895 100.742C332.319 127.691 307.717 146.814 280.964 143.304C254.209 139.797 235.672 115.014 239.541 88.1039Z" fill="#D8DEE8"/>
<path d="M273.709 100.438L215.53 584.012C214.658 591.262 219.654 597.762 226.656 598.456L468.98 625.06C483.823 625.983 491.951 618.399 492.869 610.689L553.95 96.5693C554.861 88.903 547.579 81.9584 532.671 81.9584L288.144 87.1081C281.062 87.2291 274.576 93.226 273.709 100.438Z" fill="url(#paint2_linear_44_334)"/>
<path d="M262.802 99.6068L204.304 585.599C203.427 592.886 208.442 599.42 215.466 600.119L466.687 625.132C474.563 625.915 481.782 620.217 482.702 612.469L544.126 95.6927C545.042 87.9853 539.257 81.792 531.294 81.9267L277.287 86.2132C270.185 86.3296 263.674 92.3585 262.802 99.6068Z" fill="url(#paint3_linear_44_334)"/>
<path d="M267.57 126.412L213.349 577.024C212.529 583.831 217.227 589.924 223.801 590.563L460.066 613.53C467.388 614.243 474.097 608.924 474.956 601.71L531.721 124.329C532.575 117.154 527.204 111.347 519.807 111.427L281.117 113.969C274.473 114.037 268.385 119.639 267.57 126.412Z" fill="#D8DEE8"/>
<path d="M394.268 99.2709C393.957 101.858 395.814 103.93 398.417 103.895C401.023 103.863 403.389 101.735 403.699 99.143C404.01 96.5511 402.146 94.4798 399.541 94.5186C396.935 94.5574 394.576 96.6858 394.268 99.2709Z" fill="url(#paint4_linear_44_334)"/>
<path d="M308.417 428.892C356.785 339.466 429.042 312.697 450.797 220.533C462.555 170.715 454.544 123.033 441.05 83.4477L531.298 81.9244C539.261 81.7897 545.045 87.9853 544.13 95.6903L482.706 612.466C481.786 620.217 474.567 625.915 466.691 625.129L269.207 605.467C267.743 525.338 286.855 468.753 308.417 428.892Z" fill="white"/>
<path d="M24.2913 150.891C24.2913 103.373 65.742 64.8591 115.485 64.8637C163.757 64.8682 201.853 101.357 201.853 146.361C201.853 191.365 163.757 229.796 115.485 232.265C65.7397 234.809 24.2913 198.41 24.2913 150.891Z" fill="url(#paint5_linear_44_334)"/>
<path d="M29.6533 147.102C29.6533 99.584 69.9051 61.0701 118.207 61.0747C165.081 61.0792 202.076 97.5675 202.076 142.572C202.076 187.576 165.081 226.007 118.207 228.476C69.9028 231.02 29.6533 194.618 29.6533 147.102Z" fill="url(#paint6_linear_44_334)"/>
<g opacity="0.5">
<path opacity="0.5" d="M43.4331 146.739C43.4331 106.816 77.2495 74.4568 117.832 74.4636C157.214 74.4682 188.297 105.124 188.297 142.935C188.297 180.745 157.216 213.034 117.832 215.107C77.2495 217.245 43.4331 186.662 43.4331 146.739Z" fill="white"/>
</g>
<path opacity="0.5" d="M115.04 80.5975C154.421 80.6021 185.504 111.258 185.504 149.068C185.504 158.059 183.73 166.73 180.521 174.764C185.491 165.091 188.299 154.264 188.299 142.935C188.299 105.124 157.219 74.4682 117.835 74.4636C86.535 74.4614 59.2773 93.7172 48.4368 120.838C60.7114 96.9942 86.1559 80.5953 115.04 80.5975Z" fill="white"/>
<path d="M84.1838 136.968V171.812C84.1838 181.885 92.6585 189.832 103.081 189.56L128.925 188.887C139.222 188.617 147.544 180.321 147.544 170.353V135.876L84.1838 136.968ZM107.984 172.99L112.787 158.436C110.729 157.375 109.336 155.283 109.336 152.846C109.336 149.27 112.337 146.313 116.032 146.244C119.722 146.173 122.711 149.01 122.711 152.579C122.711 155.011 121.323 157.155 119.272 158.302L124.057 172.616L107.984 172.99Z" fill="white"/>
<path d="M140.197 132.855C137.455 132.901 135.23 130.779 135.23 128.114C135.23 117.872 126.632 109.651 116.029 109.788C105.39 109.925 96.705 118.422 96.705 128.728C96.705 131.409 94.451 133.62 91.6673 133.668C88.8812 133.714 86.6204 131.576 86.6204 128.89C86.6204 113.204 99.8496 100.292 116.032 100.112C132.127 99.9314 145.155 112.423 145.155 127.959C145.155 130.617 142.938 132.809 140.197 132.855Z" fill="white"/>
<path d="M200.056 331.594C200.056 331.594 198.298 325.004 199.545 323.318C200.789 321.633 208.405 314.896 207.675 317.093C206.941 319.29 205.843 320.754 205.843 320.754C205.843 320.754 209.945 322.658 207.307 325.513C204.672 328.37 203.79 329.028 203.644 331.592C203.5 334.157 201.815 335.036 200.056 331.594Z" fill="url(#paint7_linear_44_334)"/>
<path d="M126.899 616.086C126.899 616.086 125.968 621.786 126.086 623.814C126.205 625.841 148.717 626.878 148.944 625.36C149.17 623.841 145.223 621.423 142.444 620.571C139.665 619.717 131.531 617.442 131.531 617.442L126.899 616.086Z" fill="url(#paint8_linear_44_334)"/>
<path d="M132.363 610.404L131.646 617.493C131.646 617.493 129.031 619.221 126.727 617.888L125.574 610.173L132.363 610.404Z" fill="url(#paint9_linear_44_334)"/>
<path d="M86.7324 625.326C86.7324 625.326 85.8006 631.026 85.9194 633.054C86.0381 635.081 108.55 636.118 108.777 634.6C109.005 633.081 105.056 630.663 102.277 629.811C99.498 628.959 91.3636 626.682 91.3636 626.682L86.7324 625.326Z" fill="url(#paint10_linear_44_334)"/>
<path d="M92.198 619.644L91.4809 626.732C91.4809 626.732 88.8662 628.461 86.562 627.127L85.4087 619.413L92.198 619.644Z" fill="url(#paint11_linear_44_334)"/>
<path d="M128.279 425.368C130.88 430.643 133.484 435.919 136.085 441.194C138.177 471.299 139.218 504.038 138.549 539.049C138.051 565.096 136.66 589.771 134.66 612.932C131.131 612.77 127.603 612.608 124.075 612.446C118.973 602.32 112.951 586.98 112.396 568.044C111.819 548.293 117.806 545.669 117.427 526.758C116.934 502.245 106.655 495.705 101.179 466.221C99.0848 454.944 97.6758 440.217 99.3497 422.349C108.994 423.356 118.635 424.363 128.279 425.368Z" fill="url(#paint12_linear_44_334)"/>
<path opacity="0.3" d="M99.3517 422.349C104.558 422.893 109.765 423.436 114.974 423.98C124.349 440.292 126.966 457.269 125.319 464.78C122.992 475.405 116.835 478.808 117.176 489.475C117.511 500.03 123.73 502.768 127.674 515.207C130.405 523.821 129.683 531.741 128.13 547.229C125.002 578.426 117.468 587.967 123.778 598.196C125.57 601.103 128.802 604.562 135.132 607.205C134.977 609.118 134.824 611.037 134.662 612.93C131.133 612.77 127.605 612.605 124.077 612.446C118.975 602.32 112.953 586.98 112.398 568.044C111.821 548.293 117.808 545.669 117.429 526.758C116.936 502.245 106.657 495.707 101.181 466.223C99.0868 454.946 97.6755 440.219 99.3517 422.349Z" fill="url(#paint13_linear_44_334)"/>
<path d="M114.277 434.866C109.393 461.503 105.079 490.009 101.713 520.243C97.6478 556.747 95.4783 591.162 94.6265 623.113C90.7534 623.222 86.8826 623.332 83.0095 623.441C67.7501 593.254 66.8184 572.788 69.0176 559.462C69.8648 554.329 72.169 544.26 72.6943 529.211C73.0596 518.722 72.3905 510.738 71.5547 501.142C69.7232 480.103 67.4989 475.51 67.1792 459.418C66.8778 444.313 66.8161 436.672 71.1277 432.212C82.4866 420.458 112.037 433.825 114.277 434.866Z" fill="url(#paint14_linear_44_334)"/>
<path d="M198.032 330.578C200.607 330.398 203.181 330.22 205.757 330.04C211.832 354.591 207.474 378.405 193.763 387.163C172.34 400.847 132.525 375.066 123.897 346.993C120.111 334.671 120.972 316.89 128.542 313.435C130.643 312.476 133.904 312.327 140.967 316.292C162.062 328.135 162.617 350.519 173.341 352.415C178.104 353.26 185.805 350.22 198.032 330.578Z" fill="url(#paint15_linear_44_334)"/>
<path d="M139.049 446.595C142.76 440.438 138.099 434.501 137.039 422.838C135.838 409.618 140.931 407.416 145.966 385.509C149.316 370.94 152.529 356.952 148.693 340.578C146.854 332.732 143.735 319.422 132.719 312.994C127.035 309.676 119.272 310.009 103.983 310.809C85.0746 311.797 75.6225 312.291 68.5706 316.004C67.5383 316.547 46.0902 328.215 44.6127 347.233C43.1101 366.589 64.1882 369.19 66.9994 395.002C68.2623 406.59 66.0129 424.411 64.5536 435.969C63.1537 447.068 62.1877 449.908 64.3801 453.27C69.6599 461.37 85.8213 459.061 118.144 454.446C130.823 452.633 136.279 451.19 139.049 446.595Z" fill="url(#paint16_linear_44_334)"/>
<path d="M89.8669 390.849C88.499 395.879 83.5845 399.636 80.1636 411.874C79.426 414.516 74.1622 433.332 80.988 437.963C84.9296 440.637 88.4693 435.569 98.0378 434.907C114.617 433.761 122.516 447.696 133.348 443.889C135.227 443.227 137.707 441.82 140.185 438.586C140.678 441.5 140.594 444.033 139.05 446.597C136.282 451.192 130.824 452.635 118.145 454.446C85.8225 459.061 69.6611 461.37 64.3813 453.27C62.1912 449.911 63.1549 447.068 64.5548 435.969C66.0141 424.409 68.2635 406.588 67.0006 395.003C64.1894 369.19 43.109 366.589 44.6139 347.233C45.0158 342.058 46.9181 337.452 49.4644 333.44C76.2038 344.26 94.1625 375.039 89.8669 390.849Z" fill="url(#paint17_linear_44_334)"/>
<path d="M56.0952 428.921L61.4458 432.338C62.4072 431.228 64.6315 428.99 68.1027 428.227C72.0146 427.366 76.5066 428.602 76.6093 429.849C76.6938 430.849 73.958 431.858 73.5355 432.014C70.1214 433.274 67.5889 432.226 66.2095 433.598C65.7208 434.083 65.1134 434.987 63.7135 435.823C63.3458 436.042 62.9622 436.236 62.7589 436.316C60.4798 437.202 56.5725 433.235 56.2368 432.888L56.0952 428.921Z" fill="url(#paint18_linear_44_334)"/>
<path d="M71.9001 358.754C75.7709 349.484 78.4519 335.291 72.3385 314.216C32.0594 330.087 11.5178 367.712 19.5381 397.537C26.1492 422.125 50.2053 434.101 55.5719 436.622C56.8211 433.779 58.0702 430.938 59.3171 428.097C53.0987 421.173 46.0902 410.933 47.0813 399.248C48.456 383.047 64.0648 377.519 71.9001 358.754Z" fill="url(#paint19_linear_44_334)"/>
<path d="M102.991 291.74C102.991 291.74 102.674 298.785 100.486 304.062C98.5085 308.831 88.1133 311.829 86.0055 312.893C83.8977 313.957 89.9539 317.07 96.0353 317.68C102.117 318.292 119.482 316.91 122.613 314.606C125.743 312.302 120.096 312.475 115.757 310.881C111.416 309.287 108.906 300.799 109.673 296.946C110.441 293.092 102.991 291.74 102.991 291.74Z" fill="url(#paint20_linear_44_334)"/>
<path d="M112.61 289.185C115.766 286.083 116.207 285.722 116.549 284.651C117.929 280.351 114.592 274.459 110.217 273.009C109.988 272.934 107.054 271.995 105.935 273.267C104.983 274.348 106.383 275.841 105.718 277.926C105.095 279.876 103.405 280.022 100.269 282.58C97.6864 284.686 96.0833 285.997 95.7133 287.839C94.9506 291.637 99.5476 297.141 103.617 296.992C105.081 296.938 105.481 296.191 112.61 289.185Z" fill="url(#paint21_linear_44_334)"/>
<path d="M104.017 297.579C104.017 297.579 107.372 301.377 112.481 300.121C117.055 298.997 115.888 288.497 112.54 286.821C111.423 286.261 109.393 286.307 107.868 287.042C106.966 287.476 106.714 287.928 105.228 288.609C103.857 289.237 103.421 289.15 103.054 289.593C102.592 290.146 102.394 291.338 103.839 294.211C102.798 293.473 101.677 293.318 100.989 293.807C100.88 293.884 100.601 294.158 100.48 294.517C100.044 295.816 101.396 297.138 104.017 297.579Z" fill="url(#paint22_linear_44_334)"/>
<path d="M486.589 155.41L487.77 161.784L463.465 161.841L252.546 162.341C247.12 162.354 242.131 166.84 241.386 172.359L191.036 508.863C190.287 514.433 198.956 522.935 204.35 523.351L297.923 530.542V530.428L437.893 541.165C437.895 541.165 437.897 541.165 437.9 541.165L438.238 541.307C444.214 541.768 449.697 537.432 450.473 531.549C450.473 531.547 450.473 531.574 450.476 531.572L497.629 172.295C498.396 166.467 492.6 155.394 486.589 155.41Z" fill="url(#paint23_linear_44_334)"/>
<path d="M445.705 524.548C444.933 530.433 439.452 534.831 433.476 534.372L199.346 516.395C193.954 515.982 190.202 511.131 190.951 505.562L236.723 165.479C237.465 159.96 242.455 155.474 247.876 155.458L483.328 154.81C489.336 154.794 493.598 159.505 492.835 165.333L445.705 524.548Z" fill="url(#paint24_linear_44_334)"/>
<path d="M448.815 337.522C448.432 340.436 445.71 342.61 442.736 342.5L236.675 334.98C233.955 334.882 232.041 332.642 232.416 329.858L236.467 299.83C236.842 297.049 239.324 295.167 242.046 295.242L448.288 300.97C451.266 301.052 453.374 303.155 452.992 306.067L448.815 337.522Z" fill="white"/>
<path d="M440.836 398.535C440.453 401.455 437.728 403.947 434.755 403.799L228.849 393.627C226.131 393.492 224.24 390.891 224.615 388.105L228.698 357.497C229.073 354.714 231.578 352.327 234.298 352.437L440.329 360.747C443.303 360.868 445.406 363.558 445.022 366.474L440.836 398.535Z" fill="white"/>
<path opacity="0.1" d="M453.009 305.946C452.52 305.788 451.995 305.702 451.435 305.686L245.189 299.96C242.469 299.883 239.985 301.769 239.615 304.544L235.556 334.572C235.547 334.649 235.541 334.722 235.534 334.8C233.442 334.211 232.097 332.229 232.412 329.854L236.47 299.826C236.84 297.051 239.325 295.162 242.044 295.242L448.291 300.968C451.216 301.054 453.315 303.091 453.009 305.946Z" fill="url(#paint25_linear_44_334)"/>
<path opacity="0.1" d="M445.066 365.798C444.571 365.602 444.036 365.483 443.47 365.46L237.443 357.148C234.723 357.038 232.213 359.429 231.843 362.213L227.753 392.823C227.731 393.019 227.715 393.209 227.715 393.405C225.623 392.729 224.294 390.48 224.609 388.105L228.699 357.495C229.069 354.711 231.576 352.32 234.298 352.43L440.326 360.742C443.077 360.861 445.073 363.156 445.066 365.798Z" fill="url(#paint26_linear_44_334)"/>
<path d="M386.075 447.988C386.682 443.382 383.426 439.139 378.797 438.871L272.207 432.751C267.793 432.498 263.716 436.216 263.116 440.701L258.717 473.855C258.117 478.347 261.179 482.645 265.591 482.946L372.126 490.235C376.753 490.553 381.014 486.646 381.624 482.033L386.075 447.988Z" fill="url(#paint27_linear_44_334)"/>
<path d="M394.125 224.616C392.72 235.214 387.276 244.78 379.534 251.816C371.192 259.405 360.203 264.023 348.776 263.801C337.405 263.582 327.835 258.615 321.689 250.857C316.021 243.707 313.244 234.18 314.635 223.759C317.528 202.081 337.446 184.556 359.303 184.608C381.368 184.656 397.043 202.567 394.125 224.616Z" fill="url(#paint28_linear_44_334)"/>
<path d="M372.87 212.57C371.61 222.065 362.845 229.674 353.329 229.56C343.852 229.446 337.216 221.711 338.469 212.284C339.725 202.859 348.401 195.257 357.883 195.301C367.406 195.344 374.131 203.074 372.87 212.57Z" fill="white"/>
<path d="M379.536 251.817C371.194 259.405 360.205 264.023 348.777 263.801C337.407 263.582 327.836 258.615 321.691 250.858C328.725 241.058 340.326 234.541 352.646 234.701C365.032 234.861 375.017 241.725 379.536 251.817Z" fill="white"/>
<path opacity="0.4" d="M492.833 165.332L445.705 524.547C444.933 530.43 439.103 534.803 433.129 534.344L292.508 523.547C285.828 516.707 280.327 508.5 276.401 498.65C274.474 493.82 273.063 488.609 272.124 483.128C269.514 467.96 270.525 450.718 274.332 433.794C277.26 420.766 281.85 407.904 287.726 396.299C292.426 387.02 297.952 378.537 304.125 371.407C308.569 366.276 313.376 361.29 318.446 356.401C324.559 350.5 331.056 344.741 337.759 339.034C353.377 325.727 370.1 312.717 385.583 298.978C421.309 267.286 450.293 231.873 443.318 181.345C443.095 179.753 440.918 167.565 438.137 154.932L482.979 154.809C488.985 154.793 493.598 159.506 492.833 165.332Z" fill="white"/>
<defs>
<linearGradient id="paint0_linear_44_334" x1="428.188" y1="461.786" x2="594.984" y2="11.3054" gradientUnits="userSpaceOnUse">
<stop offset="0.00359712" stop-color="#E38DDD"/>
<stop offset="1" stop-color="#9571F6"/>
</linearGradient>
<linearGradient id="paint1_linear_44_334" x1="304.711" y1="417.313" x2="628.243" y2="417.313" gradientUnits="userSpaceOnUse">
<stop stop-color="#FF9085"/>
<stop offset="1" stop-color="#FB6FBB"/>
</linearGradient>
<linearGradient id="paint2_linear_44_334" x1="387.738" y1="341.042" x2="483.236" y2="351.459" gradientUnits="userSpaceOnUse">
<stop stop-color="#444B8C"/>
<stop offset="0.9964" stop-color="#26264F"/>
</linearGradient>
<linearGradient id="paint3_linear_44_334" x1="303.595" y1="100.32" x2="539.734" y2="904.236" gradientUnits="userSpaceOnUse">
<stop stop-color="#444B8C"/>
<stop offset="0.9964" stop-color="#26264F"/>
</linearGradient>
<linearGradient id="paint4_linear_44_334" x1="392.082" y1="80.5186" x2="669.609" y2="832.156" gradientUnits="userSpaceOnUse">
<stop stop-color="#FFC444"/>
<stop offset="0.9964" stop-color="#F36F56"/>
</linearGradient>
<linearGradient id="paint5_linear_44_334" x1="-2032.59" y1="2171.85" x2="-1842.76" y2="1992.85" gradientUnits="userSpaceOnUse">
<stop stop-color="#311944"/>
<stop offset="1" stop-color="#893976"/>
</linearGradient>
<linearGradient id="paint6_linear_44_334" x1="58.1701" y1="197.135" x2="210.287" y2="59.0926" gradientUnits="userSpaceOnUse">
<stop stop-color="#FF9085"/>
<stop offset="1" stop-color="#FB6FBB"/>
</linearGradient>
<linearGradient id="paint7_linear_44_334" x1="212.292" y1="317.167" x2="182.148" y2="347.849" gradientUnits="userSpaceOnUse">
<stop stop-color="#FFC444"/>
<stop offset="0.9964" stop-color="#F36F56"/>
</linearGradient>
<linearGradient id="paint8_linear_44_334" x1="137.573" y1="608.615" x2="137.827" y2="540.547" gradientUnits="userSpaceOnUse">
<stop stop-color="#AA80F9"/>
<stop offset="0.9964" stop-color="#6165D7"/>
</linearGradient>
<linearGradient id="paint9_linear_44_334" x1="130.831" y1="630.489" x2="127.589" y2="595.316" gradientUnits="userSpaceOnUse">
<stop stop-color="#FFC444"/>
<stop offset="0.9964" stop-color="#F36F56"/>
</linearGradient>
<linearGradient id="paint10_linear_44_334" x1="97.4424" y1="608.466" x2="97.6964" y2="540.397" gradientUnits="userSpaceOnUse">
<stop stop-color="#AA80F9"/>
<stop offset="0.9964" stop-color="#6165D7"/>
</linearGradient>
<linearGradient id="paint11_linear_44_334" x1="90.1588" y1="634.236" x2="86.9177" y2="599.062" gradientUnits="userSpaceOnUse">
<stop stop-color="#FFC444"/>
<stop offset="0.9964" stop-color="#F36F56"/>
</linearGradient>
<linearGradient id="paint12_linear_44_334" x1="129.6" y1="453.261" x2="104.65" y2="580.816" gradientUnits="userSpaceOnUse">
<stop stop-color="#311944"/>
<stop offset="1" stop-color="#893976"/>
</linearGradient>
<linearGradient id="paint13_linear_44_334" x1="142.051" y1="515.634" x2="104.566" y2="518.639" gradientUnits="userSpaceOnUse">
<stop stop-color="#311944"/>
<stop offset="1" stop-color="#893976"/>
</linearGradient>
<linearGradient id="paint14_linear_44_334" x1="121.317" y1="522.685" x2="64.4129" y2="527.246" gradientUnits="userSpaceOnUse">
<stop stop-color="#311944"/>
<stop offset="1" stop-color="#893976"/>
</linearGradient>
<linearGradient id="paint15_linear_44_334" x1="166.265" y1="334.866" x2="124.165" y2="605.246" gradientUnits="userSpaceOnUse">
<stop stop-color="#AA80F9"/>
<stop offset="0.9964" stop-color="#6165D7"/>
</linearGradient>
<linearGradient id="paint16_linear_44_334" x1="76.7245" y1="631.647" x2="56.362" y2="904.525" gradientUnits="userSpaceOnUse">
<stop stop-color="#AA80F9"/>
<stop offset="0.9964" stop-color="#6165D7"/>
</linearGradient>
<linearGradient id="paint17_linear_44_334" x1="7.49461" y1="538.606" x2="119.878" y2="346.102" gradientUnits="userSpaceOnUse">
<stop stop-color="#AA80F9"/>
<stop offset="0.9964" stop-color="#6165D7"/>
</linearGradient>
<linearGradient id="paint18_linear_44_334" x1="47.3342" y1="405.504" x2="71.0367" y2="437.523" gradientUnits="userSpaceOnUse">
<stop stop-color="#FFC444"/>
<stop offset="0.9964" stop-color="#F36F56"/>
</linearGradient>
<linearGradient id="paint19_linear_44_334" x1="26.9744" y1="627.935" x2="6.6119" y2="900.813" gradientUnits="userSpaceOnUse">
<stop stop-color="#AA80F9"/>
<stop offset="0.9964" stop-color="#6165D7"/>
</linearGradient>
<linearGradient id="paint20_linear_44_334" x1="114.644" y1="325.717" x2="91.8256" y2="297.326" gradientUnits="userSpaceOnUse">
<stop stop-color="#FFC444"/>
<stop offset="0.9964" stop-color="#F36F56"/>
</linearGradient>
<linearGradient id="paint21_linear_44_334" x1="97.2931" y1="315.29" x2="109.387" y2="275.504" gradientUnits="userSpaceOnUse">
<stop stop-color="#444B8C"/>
<stop offset="0.9964" stop-color="#3E4177"/>
</linearGradient>
<linearGradient id="paint22_linear_44_334" x1="128.136" y1="301.406" x2="94.1189" y2="286.265" gradientUnits="userSpaceOnUse">
<stop stop-color="#FFC444"/>
<stop offset="0.9964" stop-color="#F36F56"/>
</linearGradient>
<linearGradient id="paint23_linear_44_334" x1="190.991" y1="348.376" x2="497.698" y2="348.376" gradientUnits="userSpaceOnUse">
<stop stop-color="#311944"/>
<stop offset="1" stop-color="#5E81F4"/>
</linearGradient>
<linearGradient id="paint24_linear_44_334" x1="377.459" y1="951.614" x2="340.888" y2="318.147" gradientUnits="userSpaceOnUse">
<stop offset="0.003597" stop-color="#F36F56"/>
<stop offset="1" stop-color="#FFC444"/>
</linearGradient>
<linearGradient id="paint25_linear_44_334" x1="232.365" y1="315.022" x2="453.037" y2="315.022" gradientUnits="userSpaceOnUse">
<stop offset="0.003597" stop-color="#F36F56"/>
<stop offset="1" stop-color="#FFC444"/>
</linearGradient>
<linearGradient id="paint26_linear_44_334" x1="224.565" y1="372.917" x2="445.066" y2="372.917" gradientUnits="userSpaceOnUse">
<stop offset="0.003597" stop-color="#F36F56"/>
<stop offset="1" stop-color="#FFC444"/>
</linearGradient>
<linearGradient id="paint27_linear_44_334" x1="332.946" y1="394.293" x2="283.654" y2="706.876" gradientUnits="userSpaceOnUse">
<stop offset="0.003597" stop-color="#F36F56"/>
<stop offset="1" stop-color="#FFC444"/>
</linearGradient>
<linearGradient id="paint28_linear_44_334" x1="349.161" y1="68.8365" x2="359.688" y2="382.31" gradientUnits="userSpaceOnUse">
<stop offset="0.003597" stop-color="#F36F56"/>
<stop offset="1" stop-color="#FFC444"/>
</linearGradient>
</defs>
</svg>
