<svg width="706" height="931" viewBox="0 0 706 931" fill="none" xmlns="http://www.w3.org/2000/svg">
<path d="M148.444 930.616C144.51 930.616 141.464 929.528 139.307 927.351C137.276 925.047 136.261 921.91 136.261 917.941V814.233H99.1378C95.838 814.233 93.2362 813.337 91.3325 811.545C89.5556 809.624 88.6672 807.064 88.6672 803.863C88.6672 800.534 89.5556 798.037 91.3325 796.373C93.2362 794.58 95.838 793.684 99.1378 793.684H197.751C201.051 793.684 203.589 794.58 205.366 796.373C207.27 798.037 208.222 800.534 208.222 803.863C208.222 807.064 207.27 809.624 205.366 811.545C203.589 813.337 201.051 814.233 197.751 814.233H160.628V917.941C160.628 921.91 159.613 925.047 157.582 927.351C155.552 929.528 152.506 930.616 148.444 930.616Z" fill="#D8681D"/>
<path d="M242.067 930.424C238.259 930.424 235.34 929.272 233.309 926.967C231.279 924.662 230.263 921.462 230.263 917.365V846.882C230.263 842.657 231.279 839.456 233.309 837.28C235.34 834.975 238.259 833.823 242.067 833.823C245.874 833.823 248.793 834.975 250.824 837.28C252.981 839.456 254.06 842.657 254.06 846.882V917.365C254.06 921.462 253.045 924.662 251.014 926.967C248.983 929.272 246.001 930.424 242.067 930.424ZM242.067 815.962C237.624 815.962 234.134 814.874 231.596 812.697C229.185 810.392 227.979 807.256 227.979 803.287C227.979 799.19 229.185 796.053 231.596 793.876C234.134 791.7 237.624 790.611 242.067 790.611C246.635 790.611 250.126 791.7 252.537 793.876C254.948 796.053 256.154 799.19 256.154 803.287C256.154 807.256 254.948 810.392 252.537 812.697C250.126 814.874 246.635 815.962 242.067 815.962Z" fill="#D8681D"/>
<path d="M290.97 930.616C287.036 930.616 283.99 929.592 281.832 927.543C279.802 925.367 278.786 922.294 278.786 918.325V845.73C278.786 841.761 279.802 838.752 281.832 836.703C283.863 834.655 286.719 833.631 290.399 833.631C294.08 833.631 296.935 834.655 298.966 836.703C300.997 838.752 302.012 841.761 302.012 845.73V857.829H300.108C301.885 850.147 305.375 844.321 310.579 840.352C315.782 836.383 322.699 834.015 331.329 833.246C333.995 832.99 336.089 833.695 337.612 835.359C339.262 836.895 340.213 839.328 340.467 842.657C340.721 845.858 339.96 848.482 338.183 850.531C336.533 852.451 333.995 853.604 330.568 853.988L326.38 854.372C318.638 855.14 312.8 857.573 308.865 861.67C304.931 865.639 302.964 871.272 302.964 878.57V918.325C302.964 922.294 301.948 925.367 299.918 927.543C297.887 929.592 294.905 930.616 290.97 930.616Z" fill="#D8681D"/>
<path d="M365.14 930.616C361.332 930.616 358.413 929.592 356.383 927.543C354.352 925.367 353.337 922.294 353.337 918.325V804.247C353.337 800.278 354.352 797.269 356.383 795.22C358.413 793.172 361.332 792.148 365.14 792.148C368.947 792.148 371.866 793.172 373.897 795.22C376.055 797.269 377.133 800.278 377.133 804.247V853.988H374.468C377.26 847.202 381.576 842.081 387.414 838.624C393.379 835.039 400.105 833.246 407.593 833.246C415.081 833.246 421.237 834.655 426.059 837.472C430.882 840.288 434.499 844.577 436.911 850.339C439.322 855.972 440.528 863.142 440.528 871.849V918.325C440.528 922.294 439.512 925.367 437.482 927.543C435.451 929.592 432.532 930.616 428.725 930.616C424.917 930.616 421.935 929.592 419.777 927.543C417.746 925.367 416.731 922.294 416.731 918.325V873.001C416.731 865.703 415.335 860.39 412.543 857.061C409.878 853.732 405.689 852.067 399.978 852.067C392.998 852.067 387.414 854.308 383.225 858.789C379.164 863.142 377.133 868.968 377.133 876.266V918.325C377.133 926.519 373.136 930.616 365.14 930.616Z" fill="#D8681D"/>
<path d="M495.348 931C488.621 931 482.593 929.72 477.262 927.159C472.059 924.47 467.934 920.885 464.888 916.404C461.969 911.923 460.51 906.866 460.51 901.232C460.51 894.319 462.286 888.877 465.84 884.908C469.394 880.811 475.168 877.866 483.164 876.074C491.16 874.281 501.884 873.385 515.337 873.385H524.856V887.213H515.527C507.659 887.213 501.376 887.597 496.681 888.365C491.985 889.133 488.621 890.477 486.591 892.398C484.687 894.19 483.735 896.751 483.735 900.08C483.735 904.305 485.195 907.762 488.114 910.451C491.033 913.139 495.094 914.484 500.298 914.484C504.486 914.484 508.166 913.524 511.339 911.603C514.639 909.554 517.241 906.802 519.145 903.345C521.048 899.888 522 895.919 522 891.438V869.352C522 862.95 520.604 858.341 517.812 855.524C515.02 852.708 510.324 851.299 503.724 851.299C500.044 851.299 496.046 851.747 491.731 852.644C487.543 853.54 483.101 855.076 478.405 857.253C475.993 858.405 473.836 858.725 471.932 858.213C470.155 857.701 468.759 856.677 467.744 855.14C466.728 853.476 466.221 851.683 466.221 849.763C466.221 847.842 466.728 845.986 467.744 844.193C468.759 842.273 470.472 840.864 472.884 839.968C478.722 837.536 484.306 835.807 489.637 834.783C495.094 833.759 500.044 833.246 504.486 833.246C513.624 833.246 521.112 834.655 526.95 837.472C532.915 840.288 537.357 844.577 540.276 850.339C543.195 855.972 544.655 863.27 544.655 872.233V918.325C544.655 922.294 543.703 925.367 541.799 927.543C539.895 929.592 537.167 930.616 533.613 930.616C530.059 930.616 527.267 929.592 525.237 927.543C523.333 925.367 522.381 922.294 522.381 918.325V909.106H523.904C523.016 913.588 521.239 917.493 518.573 920.821C516.035 924.022 512.799 926.519 508.864 928.311C504.93 930.104 500.425 931 495.348 931Z" fill="#D8681D"/>
<path d="M600.601 931C590.067 931 582.134 927.991 576.804 921.974C571.473 915.828 568.808 906.866 568.808 895.087V804.247C568.808 800.278 569.824 797.269 571.854 795.22C573.885 793.172 576.804 792.148 580.611 792.148C584.419 792.148 587.338 793.172 589.369 795.22C591.526 797.269 592.605 800.278 592.605 804.247V893.934C592.605 899.824 593.811 904.177 596.222 906.994C598.76 909.811 602.314 911.219 606.883 911.219C607.898 911.219 608.85 911.219 609.739 911.219C610.627 911.091 611.515 910.963 612.404 910.835C614.181 910.579 615.386 911.091 616.021 912.371C616.655 913.524 616.973 915.956 616.973 919.669C616.973 922.87 616.338 925.367 615.069 927.159C613.8 928.952 611.706 930.04 608.787 930.424C607.518 930.552 606.185 930.68 604.789 930.808C603.393 930.936 601.997 931 600.601 931Z" fill="#D8681D"/>
<path d="M528.56 10.9818C527.25 17.3237 530.212 24.7089 555.672 38.4361L558.235 39.8088L559.801 58.1758L557.893 57.0227C557.523 56.7972 557.075 56.7225 556.648 56.8151C556.22 56.9078 555.849 57.1602 555.615 57.5169L554.589 59.1367C554.355 59.4936 554.278 59.9254 554.374 60.3372C554.47 60.7491 554.732 61.1073 555.102 61.3331L560.342 64.4903L561.908 83.022L560.741 82.3082C560.556 82.1977 560.35 82.1236 560.135 82.09C559.92 82.0565 559.701 82.0641 559.489 82.1126C559.277 82.1611 559.078 82.2494 558.902 82.3725C558.725 82.4956 558.576 82.651 558.462 82.8299L557.437 84.4222C557.203 84.779 557.126 85.2108 557.222 85.6227C557.318 86.0346 557.58 86.3928 557.95 86.6186L562.449 89.364L563.703 104.217L574.638 110.833L582.612 52.4928C596.368 59.4387 609.895 66.0552 619.378 70.6401L620.404 89.8582L627.666 94.2509L632.763 75.6917L638.915 77.0095L634.985 72.2874L650.221 59.8231L642.93 55.4304L624.476 62.9529C615.933 56.6933 604.028 47.8255 591.526 38.9029L642.503 6.61651L631.567 0L617.129 5.49088L612.629 2.74544C612.259 2.51984 611.811 2.44517 611.384 2.53784C610.956 2.63051 610.585 2.88293 610.351 3.23962L609.325 4.85943C609.206 5.03498 609.124 5.23198 609.085 5.43867C609.046 5.64536 609.05 5.85751 609.098 6.06247C609.146 6.26744 609.236 6.46102 609.363 6.63167C609.49 6.80232 609.652 6.94656 609.838 7.05578L611.006 7.74213L593.007 14.441L587.767 11.2838C587.585 11.1684 587.381 11.0895 587.166 11.0519C586.952 11.0142 586.732 11.0186 586.519 11.0647C586.307 11.1108 586.106 11.1978 585.929 11.3203C585.752 11.4428 585.602 11.5985 585.489 11.7779L584.464 13.3703C584.344 13.5458 584.262 13.7428 584.223 13.9495C584.184 14.1562 584.189 14.3684 584.236 14.5733C584.284 14.7783 584.374 14.9719 584.501 15.1425C584.629 15.3132 584.79 15.4574 584.976 15.5666L586.856 16.7197L569.028 23.3362L566.636 21.7164C542.714 5.60069 534.654 6.17724 529.3 10.0483C528.965 10.2835 528.707 10.6079 528.56 10.9818Z" fill="#4397FF"/>
<path fill-rule="evenodd" clip-rule="evenodd" d="M667.778 539.222L664.278 536.083L657.584 522.821L653.056 515.85L647.278 512.137L634.779 511.12H621.168L617.571 507.76L616.098 501.866L612.015 497.445L611.279 488.397L612.598 484.374L610.501 476.078L608.321 474.442L601.96 461.695L594.085 451.837L589.196 446.517L591.821 444.601L594.432 440.888L601.974 435.554L605.21 431.044L603.974 419.933L600.682 412.108L601.821 409.161L605.043 391.316L600.876 381.826L599.488 365.469L599.89 361.976L599.002 350.261V329.041L594.835 321.305L591.585 319.05L591.468 309.934C550.038 347.755 482.815 403.197 463.138 419.426C460.083 421.945 458.174 423.52 457.685 423.936C456.969 424.547 455.452 425.685 453.317 427.286C438.535 438.371 394.127 471.671 380.668 506.203C365.264 545.723 362.832 569.112 374.182 602.18C379.161 620.95 393.236 664.138 410.642 690.86L418.936 689.854L431.366 686.037L431.505 686.14L482.976 674.351L524.642 637.703L675.889 547.813L671.722 543.908L667.778 539.222ZM314.967 612.025C299.486 574.106 304.041 534.777 337.7 481.2C373.371 424.42 428.77 389.255 452.01 378.77C417.96 392.75 341.753 430.066 309.325 467.489C303.487 474.227 298.355 479.977 293.837 485.039C266.988 515.123 261.836 520.896 259.061 565.08C258.815 568.997 259.355 573.14 260.57 577.452L314.967 612.025ZM221.026 552.32C220.888 525.698 230.509 491.374 266.357 459.424C316.619 414.628 491.3 312.241 581.065 264.665L580.218 262.054C512.958 292.469 390.18 345.176 390.18 345.176C390.18 345.176 236.502 407.053 212.489 454.112C211.427 456.192 210.376 458.223 209.345 460.216L209.339 460.229C196.571 484.908 186.817 503.764 197.233 537.198L221.026 552.32ZM546.128 216.576L547.355 220.498C495.042 268.083 439.716 286.202 364.164 310.944C330.72 321.896 293.313 334.146 250.45 350.825C162.221 385.155 112.092 432.099 87.4708 466.978L0.152775 410.738V411.092L0 410.738L0.152775 401.837L0.291661 401.734L0.777762 374.193L16.4163 363.524L22.8745 355.242L32.791 348.684L50.624 345.295H60.8182L66.6375 343.733L79.4428 343.379L92.7342 340.594L120.206 325.107L156.136 305.331L179.455 289.784L182.371 283.684L182.024 273.368L185.232 265.883L192.357 259.988L200.399 247.492L208.482 245.93H248.3L252.814 239.829L252.134 237.766L255.897 228.792L252.925 226.714L249.314 226.537L245.87 223.59L240.62 222.116L239.009 215.721L234.148 206.319L231.37 182.462L230.065 177.275L230.231 164.69L229.69 154.242L228.495 151.914L227.773 146.019L223.843 141.142L222.107 137.325L219.843 133.98L228.87 133.538L239.134 130.384L245.62 123.724L246.856 119.774L250.911 116.149L258.897 112.259L268.508 111.67L270.397 109.106L273.883 106.659L278.786 106.586L281.008 108.487H284.536L288.855 103.182L289.23 98.1714L297.174 93.5737L301.855 93.3969L311.396 92.1296L327.563 80.046L335.118 81.166L348.062 80.665L355.215 78.1451L363.048 82.4038L368.145 82.5512L376.784 74.4463L383.159 77.0252H390.27L393.686 70.3939L398.061 69.4213L404.158 71.337L407.45 70.6886L414.561 71.6465L423.505 70.1729L427.561 71.337L436.685 71.9412L440.894 78.4103H448.602L455.546 73.3117H460.852L465.268 75.0505L468.324 70.1729L475.129 68.9498L475.712 64.529L483.587 62.8049L488.462 66.2531L489.212 71.337L500.615 72.5307L506.462 67.2257L506.795 63.748L515.975 67.0046L523.336 73.1201L537.642 69.1266L542.655 70.1729L552.155 68.4046L553.947 70.3202L552.794 74.8884L554.183 78.5872L552.794 88.4309L552.947 98.7461L546.947 113.482L549.114 122.324L553.544 127.157L553.947 129.043L551.169 131.622L548.266 136.264L552.766 140.685L549.572 144.001L547.378 155.392L543.683 158.059L540.53 162.008L535.531 163.482L528.045 172.205L523.975 187.781L526.184 189.152L530.35 197.625L528.85 201.324L533.225 207.484L536.656 208.618L546.128 216.576Z" fill="#4CAF50"/>
<path fill-rule="evenodd" clip-rule="evenodd" d="M375.007 605.889C517.589 488.643 594.339 412.722 694.3 260.96C720.397 187.899 700.021 121.887 647.786 88.6673C740.045 196.3 615.215 295.539 489.26 395.671C468.101 412.492 446.911 429.338 426.712 446.253C372.894 491.304 351.983 558.214 375.007 605.889Z" fill="#D8681D"/>
<path fill-rule="evenodd" clip-rule="evenodd" d="M135.62 345.225C129.078 359.476 117.773 393.142 117.773 430.159C117.773 431.105 117.704 432.03 117.57 432.947C160.942 380.92 253.275 348.049 342.57 316.26C344.095 315.717 345.62 315.174 347.143 314.632C460.088 274.377 530.419 242.453 561.699 205.004C575.267 188.947 583.025 168.786 583.722 147.777C578.812 164.272 566.412 175.914 555.191 183.404C502.086 213.488 427.911 228.895 356.461 243.735C253.489 265.124 156.178 285.336 135.757 346.611C135.709 346.149 135.663 345.687 135.62 345.225ZM92.5796 490.407C92.5078 490.615 92.4348 490.817 92.3606 491.013C92.4062 491.129 92.4519 491.245 92.4977 491.361C92.5235 491.042 92.5508 490.724 92.5796 490.407Z" fill="#4CAF50"/>
<path d="M609.583 243.833C607.901 245.287 606.106 246.629 604.34 248.14C492.215 340.931 374.294 368.923 262.47 464.402C202.019 532.639 222.235 580.265 232.525 598.499C172.888 546.706 174.906 462.668 267.909 405.253C359.542 341.697 481 319.257 609.583 243.833Z" fill="#D8681D"/>
<path d="M368.334 690.86C175.169 591.015 258.006 458.482 454.418 380.527C249.624 511.637 306.002 621.815 368.334 690.86Z" fill="#D8681D"/>
<path fill-rule="evenodd" clip-rule="evenodd" d="M602.687 387.917C538.338 464.896 471.399 524.701 374.066 603.225C373.74 602.563 373.432 601.987 373.139 601.493C373.269 601.877 373.401 602.263 373.534 602.649C378.524 621.32 392.629 664.28 410.073 690.861L418.384 689.86L430.841 686.063L430.98 686.166L482.562 674.439L524.317 637.984L675.888 548.569L671.713 544.684L667.76 540.023L664.253 536.901L657.544 523.708L653.006 516.775L647.216 513.081L634.69 512.07H621.05L617.445 508.728L615.97 502.864L611.878 498.467L611.14 489.467L612.462 485.465L610.361 477.212L608.175 475.585L601.801 462.906L593.909 453.1L589.01 447.808L591.64 445.902L594.257 442.208L601.815 436.902L605.058 432.417L603.819 421.364L600.52 413.581L601.662 410.649L604.891 392.898L602.687 387.917Z" fill="#D8681D"/>
</svg>
